<svg width="104" height="23" viewBox="0 0 104 23" fill="none" xmlns="http://www.w3.org/2000/svg">
<path fill-rule="evenodd" clip-rule="evenodd" d="M9.01454 4.24249L6.87454 0.891235L0.423218 4.25447L0.469006 17.715L9.10491 22.1423L13.4102 19.915L13.4223 15.4289L9.13624 13.2942L9.06635 17.5821L4.84419 15.418L4.75503 6.46431L9.01454 4.24249Z" fill="url(#paint0_linear_1_11)"/>
<path fill-rule="evenodd" clip-rule="evenodd" d="M13.4098 18.7388L15.5486 22.089L21.9999 18.7268L21.9553 5.2652L13.3194 0.837891L9.01413 3.06625L9.00208 7.55128L13.2881 9.68706L13.358 5.39807L17.5801 7.56326L17.6693 16.5159L13.4098 18.7388Z" fill="url(#paint1_linear_1_11)"/>
<path d="M44 3.87187H47V20.6719H44V12.9679H33.2V20.6719H30.2V3.87187H33.2V9.96787H44V3.87187ZM63.1953 3.87187H66.1953V12.2719C66.1953 16.9039 62.4273 20.6719 57.7953 20.6719C53.1633 20.6719 49.3953 16.9039 49.3953 12.2719V3.87187H52.3953V12.2719C52.3953 15.2479 54.8193 17.6719 57.7953 17.6719C60.7713 17.6719 63.1953 15.2479 63.1953 12.2719V3.87187ZM68.5906 3.87187L76.9666 3.89587C81.5986 3.89587 85.3666 7.63987 85.3666 12.2719C85.3666 14.3359 84.6226 16.2319 83.3746 17.6959C83.2306 17.8639 83.0626 18.0319 82.8946 18.1999C81.3826 19.7359 79.2946 20.6719 76.9906 20.6719H68.5906V3.87187ZM71.5666 6.89587V17.6959H76.9666C79.9426 17.6959 82.3666 15.2719 82.3666 12.2959C82.3666 9.31987 79.9426 6.89587 76.9666 6.89587H71.5666ZM100.341 17.6719L101.877 20.6719H98.5166L96.9806 17.6719L93.3086 10.4719L89.6366 17.6719L88.1006 20.6719H84.7406L86.2766 17.6719L93.3086 3.87187L100.341 17.6719Z" fill="black"/>
<defs>
<linearGradient id="paint0_linear_1_11" x1="-0.0199315" y1="4.1251" x2="13.3277" y2="4.48387" gradientUnits="userSpaceOnUse">
<stop stop-color="#1F5EFF"/>
<stop offset="0.910017" stop-color="#5081FF"/>
<stop offset="1" stop-color="#5081FF"/>
</linearGradient>
<linearGradient id="paint1_linear_1_11" x1="8.55897" y1="4.07175" x2="21.9053" y2="4.43046" gradientUnits="userSpaceOnUse">
<stop stop-color="#1F5EFF"/>
<stop offset="0.910017" stop-color="#5081FF"/>
<stop offset="1" stop-color="#5081FF"/>
</linearGradient>
</defs>
</svg>
